<svg width="300" height="150" viewBox="0 0 300 150" fill="none" xmlns="http://www.w3.org/2000/svg">
    <!-- Fond blanc (transparent dans ce cas) -->
    <rect width="300" height="150" fill="white"/>
    
    <!-- Partie graphique du logo -->
    <path d="M50 75C50 55 66 40 85 40H105C124 40 140 55 140 75C140 95 124 110 105 110H85C66 110 50 95 50 75Z" fill="#3B82F6"/>
    <path d="M95 60C97.7614 60 100 62.2386 100 65C100 67.7614 97.7614 70 95 70C92.2386 70 90 67.7614 90 65C90 62.2386 92.2386 60 95 60Z" fill="white"/>
    <path d="M95 80C97.7614 80 100 82.2386 100 85C100 87.7614 97.7614 90 95 90C92.2386 90 90 87.7614 90 85C90 82.2386 92.2386 80 95 80Z" fill="white"/>
    <path d="M80 65C80 62.2386 82.2386 60 85 60C87.7614 60 90 62.2386 90 65C90 67.7614 87.7614 70 85 70C82.2386 70 80 67.7614 80 65Z" fill="white"/>
    <path d="M80 85C80 82.2386 82.2386 80 85 80C87.7614 80 90 82.2386 90 85C90 87.7614 87.7614 90 85 90C82.2386 90 80 87.7614 80 85Z" fill="white"/>
    <path d="M110 65C110 62.2386 112.239 60 115 60C117.761 60 120 62.2386 120 65C120 67.7614 117.761 70 115 70C112.239 70 110 67.7614 110 65Z" fill="white"/>
    <path d="M110 85C110 82.2386 112.239 80 115 80C117.761 80 120 82.2386 120 85C120 87.7614 117.761 90 115 90C112.239 90 110 87.7614 110 85Z" fill="white"/>
    
    <!-- Texte RecruitPro -->
    <text x="160" y="80" font-family="Arial, sans-serif" font-size="32" font-weight="bold" fill="#1F2937">RecruitPro</text>
</svg>
